<?xml version="1.0" encoding="utf-8"?>
<!-- Generator: Adobe Illustrator 27.0.1, SVG Export Plug-In . SVG Version: 6.00 Build 0)  -->
<svg version="1.1" xmlns="http://www.w3.org/2000/svg" xmlns:xlink="http://www.w3.org/1999/xlink" x="0px" y="0px"
	 viewBox="0 0 1104.18 1150.36" style="enable-background:new 0 0 1104.18 1150.36;" xml:space="preserve">
	<g id="_x31_" class="eye">
		<g>
			<path d="M644.65,689.24c1.86,3.67,5.58,5.78,9.43,5.78c1.61,0,3.25-0.36,4.78-1.15c5.2-2.64,7.28-9.01,4.63-14.21l-16.4-32.25
				c30.87-10.43,23.9-8.41,43-18.66L721,661.21c2.07,2.18,4.86,3.28,7.65,3.28c2.62,0,5.24-0.96,7.29-2.92
				c4.23-4.02,4.39-10.72,0.36-14.94l-27.5-28.89c9.11-5.84,17.99-12.2,26.54-19.18c4.52-3.69,5.19-10.35,1.49-14.87
				c-3.68-4.53-10.36-5.2-14.87-1.49c-92.72,75.76-224.51,78.72-320.53,7.18l-10.02-7.47c-4.67-3.5-11.3-2.54-14.79,2.15
				c-3.49,4.68-2.53,11.3,2.15,14.79l10.02,7.48c3.95,2.95,7.98,5.73,12.05,8.45l-22.78,22.78c-4.13,4.13-4.13,10.82,0,14.95
				c2.06,2.06,4.77,3.1,7.47,3.1c2.7,0,5.41-1.03,7.47-3.1l26.34-26.34c7.77,4.37,15.71,8.31,23.76,11.89L423.5,676.2
				c-2.67,5.2-0.63,11.57,4.56,14.24c1.55,0.8,3.2,1.17,4.83,1.17c3.83,0,7.54-2.09,9.41-5.73l20.55-39.96
				c9.62,3.42,19.37,6.34,29.22,8.68l-3.38,40.45c-0.48,5.82,3.84,10.93,9.66,11.42c0.3,0.02,0.6,0.03,0.89,0.03
				c5.44,0,10.06-4.17,10.52-9.69l3.18-38.06c13.53,2.15,27.18,3.26,40.83,3.42l7.07,44.27c0.83,5.2,5.33,8.91,10.43,8.91
				c0.56,0,1.11-0.04,1.68-0.13c5.77-0.92,9.7-6.35,8.77-12.11l-6.63-41.51c17.29-1.11,34.49-3.77,51.38-8.07L644.65,689.24z"/>
		</g>
	</g>
	<g id="_x32_">
		<path d="M734.96,581.32l-10.02-7.47c-3.95-2.94-7.98-5.73-12.05-8.45l22.79-22.78c4.13-4.13,4.13-10.82,0-14.95
			c-4.13-4.13-10.82-4.13-14.95,0l-26.34,26.34c-7.75-4.36-15.68-8.32-23.75-11.91l19.61-38.14c2.67-5.19,0.63-11.56-4.57-14.23
			c-5.16-2.68-11.57-0.63-14.23,4.57l-20.53,39.93c-9.58-3.41-19.33-6.3-29.25-8.64l3.38-40.47c0.48-5.82-3.84-10.93-9.66-11.42
			c-5.84-0.42-10.93,3.83-11.42,9.66l-3.19,38.12c-12.72-1.99-25.65-3.09-38.71-3.33c-0.64-0.02-1.26-0.11-1.91-0.11
			c-0.07,0-0.13,0.01-0.2,0.01l-7.08-44.31c-0.92-5.77-6.39-9.66-12.11-8.77c-5.77,0.92-9.7,6.35-8.77,12.11l6.65,41.62
			c-17.37,1.12-34.56,3.83-51.32,8.1l-18.23-35.86c-2.64-5.2-9-7.3-14.21-4.63c-5.2,2.64-7.28,9.01-4.63,14.21l16.47,32.39
			c-14.81,4.99-29.2,11.21-43.01,18.59l-30.96-32.53c-4.03-4.23-10.73-4.39-14.95-0.37c-4.23,4.03-4.39,10.72-0.37,14.95l27.52,28.92
			c-9.18,5.86-18.07,12.22-26.55,19.15c-2.52,2.06-3.95,5.17-3.88,8.42c0.08,3.26,1.64,6.29,4.26,8.24l10.02,7.47
			c48.99,36.5,107.18,55.8,168.27,55.81c0.01,0,0.01,0,0.01,0c0.74,0,1.47-0.04,2.21-0.05c0.29,0,0.57,0.05,0.86,0.05
			c0.66,0,1.3-0.09,1.95-0.11c63.02-1.13,124.37-23.53,173.23-63.46c2.52-2.06,3.95-5.17,3.88-8.42
			C739.15,586.3,737.58,583.27,734.96,581.32z M402.58,589.63C402.58,589.63,402.58,589.63,402.58,589.63
			C402.58,589.63,402.58,589.63,402.58,589.63L402.58,589.63z M502.58,544.97l0.01-0.02c0,0,59.59-15.9,113.58,1.08l0.01,0.03
			c18.83,4.4,37.09,10.87,54.51,19.38c-17.99-3.47-35.53-5.94-52.49-7.6c-8.7-0.85-17.26-1.49-25.64-1.93
			c-23.09-1.23-44.86-1.02-64.87,0.1c-8.92,0.5-17.48,1.18-25.66,1.98c-25.46,2.51-47.2,6.28-64.09,9.91
			C458.38,557.45,480.13,549.75,502.58,544.97z M571.8,582.01l1.98,0.16c0.96,0.08,1.21,1.36,0.36,1.8l-1.76,0.9
			c-0.69,0.35-0.69,1.34,0,1.69l1.76,0.9c0.85,0.44,0.6,1.72-0.36,1.8l-1.98,0.16c-0.77,0.06-1.15,0.97-0.65,1.57l1.28,1.51
			c0.62,0.73-0.11,1.82-1.02,1.52l-1.89-0.61c-0.74-0.24-1.44,0.46-1.2,1.2l0.61,1.89c0.29,0.91-0.79,1.64-1.52,1.02l-1.51-1.28
			c-0.59-0.5-1.5-0.12-1.57,0.65l-0.16,1.98c-0.08,0.96-1.36,1.21-1.8,0.36l-0.9-1.76c-0.35-0.69-1.34-0.69-1.69,0l-0.9,1.76
			c-0.44,0.85-1.72,0.6-1.8-0.36l-0.16-1.98c-0.06-0.77-0.97-1.15-1.57-0.65l-1.51,1.28c-0.73,0.62-1.82-0.11-1.52-1.02l0.61-1.89
			c0.24-0.74-0.46-1.44-1.2-1.2l-1.89,0.61c-0.91,0.29-1.64-0.79-1.02-1.52l1.28-1.51c0.5-0.59,0.12-1.5-0.65-1.57l-1.98-0.16
			c-0.96-0.08-1.21-1.36-0.36-1.8l1.76-0.9c0.69-0.35,0.69-1.34,0-1.69l-1.76-0.9c-0.85-0.44-0.6-1.72,0.36-1.8l1.98-0.16
			c0.77-0.06,1.15-0.97,0.65-1.57l-0.74-0.87c7.32-0.16,14.84-0.17,22.53-0.04l-0.77,0.91C570.65,581.04,571.03,581.95,571.8,582.01z
			M415.24,598.4c13.51-3.81,41.95-10.85,80.28-15.2c-0.18,2.17-0.27,4.37-0.27,6.6c0,17.73,5.88,33.94,15.55,46.47
			C476.81,630.19,444.48,617.43,415.24,598.4z M561.77,640.31c-0.8,0.01-1.59,0.04-2.38,0.05c-23.78-0.49-43-22.96-43-50.56
			c0-2.95,0.26-5.83,0.68-8.65c4.63-0.35,9.41-0.64,14.26-0.9c-0.21,1.23-0.33,2.61-0.33,4.26c0,18.19,13.06,32.93,29.17,32.93
			c16.11,0,29.17-14.74,29.17-32.93c0-1.72-0.13-3.17-0.35-4.43c4.7,0.22,9.44,0.48,14.25,0.83c0.44,2.89,0.71,5.85,0.71,8.88
			C603.94,617.08,585.16,639.33,561.77,640.31z M610.67,634.77c9-12.32,14.41-27.95,14.41-44.98c0-2.33-0.12-4.63-0.32-6.9
			c24.44,2.73,50,7.25,76.2,14.16C673.49,615.22,642.79,628,610.67,634.77z"/>
	</g>
	<g id="_x33__00000110472356183623403440000014552683703358464188_">
		<g>
			<g>
				<path d="M557.1,661.77c0.74,0,1.47-0.04,2.21-0.05c0.29,0,0.57,0.05,0.86,0.05c0.66,0,1.3-0.09,1.95-0.11
					c63.02-1.13,124.37-23.53,173.23-63.46c2.52-2.06,3.95-5.17,3.88-8.42c-0.08-3.26-1.65-6.29-4.26-8.24l-10.02-7.47
					c-3.95-2.94-7.98-5.73-12.05-8.45l22.79-22.78c4.13-4.13,4.13-10.82,0-14.95c-4.13-4.13-10.82-4.13-14.95,0l-26.34,26.34
					c-7.75-4.36-15.68-8.32-23.75-11.91l19.61-38.14c2.67-5.19,0.63-11.56-4.57-14.23c-5.16-2.68-11.57-0.63-14.23,4.57l-20.53,39.93
					c-9.58-3.41-19.33-6.3-29.25-8.64l3.38-40.47c0.48-5.82-3.84-10.93-9.66-11.42c-5.84-0.42-10.93,3.83-11.42,9.66l-3.19,38.12
					c-12.72-1.99-25.65-3.09-38.71-3.33c-0.64-0.02-1.26-0.11-1.91-0.11c-0.07,0-0.13,0.01-0.2,0.01l-7.08-44.31
					c-0.92-5.77-6.39-9.66-12.11-8.77c-5.77,0.92-9.7,6.35-8.77,12.11l6.65,41.62c-17.37,1.12-34.56,3.83-51.32,8.1l-18.23-35.86
					c-2.64-5.2-9-7.3-14.21-4.63c-5.2,2.64-7.28,9.01-4.63,14.21l16.47,32.39c-14.81,4.99-29.2,11.21-43.01,18.59l-30.96-32.53
					c-4.03-4.23-10.73-4.39-14.95-0.37c-4.23,4.03-4.39,10.72-0.37,14.95l27.52,28.92c-9.18,5.86-18.07,12.22-26.55,19.15
					c-2.52,2.06-3.95,5.17-3.88,8.42c0.08,3.26,1.64,6.29,4.26,8.24l10.02,7.47c48.99,36.5,107.18,55.8,168.27,55.81
					C557.09,661.77,557.09,661.77,557.1,661.77z M711.17,590.18c-29.98,21.96-64.35,37.19-100.5,44.81
					c8.99-12.32,14.41-27.95,14.41-44.98c0-17.03-5.42-32.67-14.42-44.99C646.77,552.62,680.85,567.84,711.17,590.18z M402.58,589.85
					c32.1-23.52,69.23-39.3,108.2-46.3c-9.67,12.53-15.54,28.74-15.54,46.46c0,17.73,5.88,33.94,15.55,46.47
					C471.82,629.52,435.04,613.78,402.58,589.85z M516.38,590.02c0-27.56,19.17-50.01,42.91-50.56c0.88,0.01,1.75,0.03,2.63,0.05
					c23.32,1.08,42.02,23.29,42.02,50.51c0,27.28-18.79,49.53-42.18,50.52c-0.79,0.01-1.59,0.04-2.38,0.05
					C535.6,640.09,516.38,617.62,516.38,590.02z"/>
			</g>
			<path d="M575.53,588.52l2.29-1.17c0.56-0.29,0.75-0.85,0.64-1.35c-0.08-0.53-0.46-1-1.11-1.06l-2.57-0.21
				c-0.73-0.06-1.17-0.7-1.12-1.34c0.03-0.21,0.12-0.43,0.28-0.61l1.67-1.96c0.21-0.25,0.29-0.53,0.29-0.81
				c0.04-0.79-0.71-1.54-1.61-1.25l-2.45,0.79c-0.72,0.23-1.41-0.22-1.58-0.86c-0.04-0.2-0.05-0.4,0.02-0.62l0.79-2.45
				c0,0,0,0,0-0.01c-0.01,0-0.02,0-0.02,0l0.02-0.08c0.38-1.19-1.03-2.13-1.98-1.32l-1.96,1.67c-0.77,0.65-1.95,0.16-2.03-0.84
				l-0.21-2.57c-0.1-1.24-1.77-1.57-2.33-0.46l-1.17,2.29c-0.46,0.9-1.74,0.9-2.2,0l-1.17-2.29c-0.57-1.11-2.23-0.78-2.33,0.46
				l-0.21,2.57c-0.08,1.01-1.27,1.5-2.03,0.84l-1.96-1.67c-0.95-0.81-2.36,0.14-1.98,1.32l0.08,0.26c-0.01,0-0.02,0-0.03,0l0.73,2.27
				c0.07,0.21,0.06,0.42,0.02,0.62c-0.17,0.64-0.86,1.09-1.58,0.86l-2.45-0.79c-0.9-0.29-1.65,0.46-1.61,1.25
				c0,0.27,0.07,0.56,0.29,0.81l1.67,1.96c0.16,0.19,0.24,0.4,0.28,0.61c0.05,0.64-0.39,1.28-1.12,1.34l-2.57,0.21
				c-0.65,0.05-1.03,0.53-1.11,1.06c-0.11,0.5,0.08,1.07,0.64,1.35l2.29,1.17c0.43,0.22,0.65,0.64,0.66,1.06
				c-0.01,0.42-0.23,0.84-0.66,1.06l-2.29,1.17c-0.56,0.29-0.75,0.85-0.64,1.36c0.08,0.53,0.46,1,1.11,1.06l2.57,0.21
				c0.73,0.06,1.17,0.7,1.12,1.34c-0.03,0.21-0.12,0.43-0.28,0.61l-1.67,1.96c-0.21,0.25-0.29,0.53-0.29,0.81
				c-0.04,0.79,0.71,1.54,1.61,1.25l2.45-0.79c0.72-0.23,1.41,0.22,1.58,0.86c0.04,0.2,0.05,0.4-0.02,0.62l-0.79,2.45c0,0,0,0,0,0.01
				c0.01,0,0.02,0,0.02,0l-0.02,0.08c-0.38,1.19,1.03,2.13,1.98,1.32l1.96-1.67c0.77-0.65,1.95-0.16,2.03,0.84l0.21,2.57
				c0.1,1.24,1.77,1.57,2.33,0.46l1.17-2.29c0.46-0.9,1.74-0.9,2.2,0l1.17,2.29c0.57,1.11,2.23,0.78,2.33-0.46l0.21-2.57
				c0.08-1.01,1.27-1.5,2.03-0.84l1.96,1.67c0.95,0.81,2.36-0.14,1.98-1.32l-0.08-0.26c0.01,0,0.02,0,0.03,0l-0.73-2.27
				c-0.07-0.21-0.06-0.42-0.02-0.62c0.17-0.64,0.86-1.09,1.58-0.86l2.45,0.79c0.9,0.29,1.65-0.46,1.61-1.25
				c0-0.27-0.07-0.56-0.29-0.81l-1.67-1.96c-0.16-0.19-0.24-0.4-0.28-0.61c-0.05-0.64,0.39-1.28,1.12-1.34l2.57-0.21
				c0.65-0.05,1.03-0.53,1.11-1.06c0.11-0.5-0.08-1.07-0.64-1.36l-2.29-1.17c-0.43-0.22-0.65-0.64-0.66-1.06
				C574.88,589.16,575.1,588.74,575.53,588.52z"/>
		</g>
	</g>
	<g id="_x34_">
		<g>
			<path d="M374.53,590.04c0.07,3.26,1.64,6.3,4.25,8.24l10.03,7.48c48.99,36.5,107.18,55.8,168.27,55.8c0,0,0,0,0.01,0
				c0.74,0,1.48-0.04,2.22-0.05c0.29,0,0.57,0.05,0.86,0.05c0.66,0,1.3-0.09,1.95-0.11c63.03-1.14,124.36-23.53,173.23-63.46
				c2.52-2.06,3.95-5.17,3.88-8.42c-0.08-3.26-1.64-6.29-4.26-8.24l-10.02-7.47c-3.95-2.94-7.98-5.73-12.05-8.45l22.78-22.78
				c4.13-4.13,4.13-10.82,0-14.95c-4.13-4.13-10.82-4.13-14.95,0l-26.34,26.34c-7.75-4.36-15.68-8.32-23.76-11.91l19.61-38.14
				c2.67-5.19,0.63-11.56-4.57-14.23c-5.16-2.67-11.56-0.63-14.23,4.57l-20.53,39.93c-9.58-3.4-19.33-6.3-29.25-8.64l3.39-40.48
				c0.49-5.82-3.83-10.93-9.65-11.42c-5.82-0.47-10.93,3.83-11.41,9.66l-3.19,38.13c-12.66-1.99-25.53-3.08-38.53-3.33
				c-0.7-0.02-1.39-0.12-2.1-0.12c-0.07,0-0.13,0.01-0.19,0.01l-7.07-44.31c-0.93-5.77-6.36-9.72-12.11-8.77
				c-5.77,0.92-9.69,6.34-8.77,12.11l6.64,41.62c-17.37,1.12-34.55,3.83-51.32,8.1l-18.24-35.86c-2.64-5.2-9.01-7.28-14.21-4.63
				c-5.21,2.64-7.28,9.01-4.63,14.21l16.47,32.39c-14.81,4.99-29.2,11.21-43.01,18.59l-30.96-32.52c-4.03-4.23-10.72-4.4-14.94-0.37
				c-4.23,4.03-4.39,10.72-0.37,14.95l27.52,28.91c-9.18,5.86-18.07,12.22-26.55,19.15C375.89,583.68,374.46,586.78,374.53,590.04z
				M711.17,589.97c-29.97,21.96-64.34,37.18-100.49,44.81c8.99-12.31,14.41-27.95,14.41-44.97c0-17.03-5.42-32.67-14.42-44.98
				C646.77,552.42,680.86,567.63,711.17,589.97z M510.77,543.35c-9.66,12.53-15.53,28.74-15.53,46.46c0,17.73,5.88,33.94,15.55,46.48
				c-38.97-6.97-75.76-22.72-108.22-46.64C434.67,566.13,471.8,550.35,510.77,543.35z"/>
		</g>
	</g>
</svg>
